<svg height="27" viewBox="0 0 172 27" width="172" xmlns="http://www.w3.org/2000/svg"><g fill="none" fill-rule="evenodd"><g transform="translate(0 .617143)"><g fill="#4a4a4a"><path d="m22.2171429 25.7393006h3.3325714v-10.7382857h-3.3325714z"/><path d="m22.2171429 12.4090149h3.3325714v-12.21942861h-3.3325714z"/><path d="m14.8114286 25.7393006h3.3325714v-16.29257146h-3.3325714z"/></g><path d="m14.8114286 6.85472914h3.3325714v-6.66514285h-3.3325714z" fill="#46d7ce"/><path d="m7.40571429 25.7393006h3.33257141v-6.2948572h-3.33257141z" fill="#46d7ce"/><path d="m7.40571429 16.8524434h3.33257141v-16.66285711h-3.33257141z" fill="#4a4a4a"/><path d="m0 25.7393006h3.33257143v-25.54971431h-3.33257143z" fill="#4a4a4a"/></g><path d="m12.6138446 13.4435635v-13.12107432h2.5327543v25.64413712h-2.5327543v-2.0402743c-.8442515 1.0904915-2.4272229 2.4624-4.99515431 2.4624-3.6936 0-7.10578286-2.6031085-7.10578286-7.7389714 0-5.0303314 3.37700571-7.63344 7.10578286-7.63344 2.81417141 0 4.32678861 1.5477943 4.99515431 2.4272229zm-4.71373717-.1758857c-2.49757714 0-4.78409143 1.8292114-4.78409143 5.3821028 0 3.1307657 1.75885714 5.4876343 4.78409143 5.4876343 3.09558857 0 4.85444567-2.5679314 4.85444567-5.4524571 0-3.7639543-2.6031085-5.41728-4.85444567-5.41728zm24.21668577.1758857v-2.0754515h2.5327542v14.5985143h-2.5327542v-2.0402743c-.8442515 1.0904915-2.4272229 2.4624-4.9951543 2.4624-3.6936 0-7.1057829-2.6031085-7.1057829-7.7389714 0-5.0303314 3.3770057-7.63344 7.1057829-7.63344 2.8141714 0 4.3267885 1.5477943 4.9951543 2.4272229zm-4.7137372-.1758857c-2.4975771 0-4.7840914 1.8292114-4.7840914 5.3821028 0 3.1307657 1.7588571 5.4876343 4.7840914 5.4876343 3.0955886 0 4.8544457-2.5679314 4.8544457-5.4524571 0-3.7639543-2.6031085-5.41728-4.8544457-5.41728zm18.1662172.4221257h-2.5327543v12.2768228h-2.5327543v-12.2768228h-1.5477943v-2.3216915h1.5477943v-5.27657139h2.5327543v5.27657139h2.5327543zm14.5781486-.24624v-2.0754515h2.5327543v14.5985143h-2.5327543v-2.0402743c-.8442515 1.0904915-2.4272229 2.4624-4.9951543 2.4624-3.6936 0-7.1057829-2.6031085-7.1057829-7.7389714 0-5.0303314 3.3770057-7.63344 7.1057829-7.63344 2.8141714 0 4.3267886 1.5477943 4.9951543 2.4272229zm-4.7137372-.1758857c-2.4975771 0-4.7840914 1.8292114-4.7840914 5.3821028 0 3.1307657 1.7588571 5.4876343 4.7840914 5.4876343 3.0955886 0 4.8544457-2.5679314 4.8544457-5.4524571 0-3.7639543-2.6031085-5.41728-4.8544457-5.41728zm10.9197258-1.8995658h2.8141714l4.3267886 9.9199543 4.5730285-11.0456228 4.5378515 11.0456228 4.3619657-9.9199543h2.8141714l-7.2464914 15.6186515-4.5026743-10.9049143-4.5026743 10.9049143zm33.9255776 15.02064c-4.4323205 0-7.7389719-3.2362971-7.7389719-7.6686171s3.2714743-7.7037943 7.7389719-7.7037943c4.467497 0 7.738971 3.2714743 7.738971 7.7037943s-3.306651 7.6686171-7.738971 7.6686171zm0-13.1210742c-2.6734633 0-5.1358633 1.8995657-5.1358633 5.4524571 0 3.5880686 2.5327542 5.41728 5.1358633 5.41728 2.638285 0 5.135862-1.8643886 5.135862-5.41728 0-3.5880686-2.4624-5.4524571-5.135862-5.4524571zm10.4976-1.8995658h2.814171l4.326789 9.9199543 4.573028-11.0456228 4.537852 11.0456228 4.361965-9.9199543h2.814172l-7.246492 15.6186515-4.502674-10.9049143-4.502674 10.9049143z" fill="#4a4a4a" transform="translate(37.522286)"/></g></svg>
